<svg width="1597" height="553" viewBox="0 0 1597 553" fill="none" xmlns="http://www.w3.org/2000/svg">
<g clip-path="url(#clip0)">
<path d="M479.804 417.718V197.488H539.722C521.859 136.899 483.694 84.2925 431.628 48.4909C379.562 12.6892 316.762 -4.12963 253.761 0.855218C190.759 5.84007 131.389 32.3254 85.608 75.8691C39.8266 119.413 10.4186 177.366 2.31634 240.009C-5.78594 302.653 7.91033 366.175 41.108 419.923C74.3056 473.671 124.985 514.375 184.647 535.208C244.309 556.041 309.324 555.736 368.787 534.344C428.251 512.953 478.546 471.775 511.238 417.718H479.804Z" fill="#FFDD00"/>
<path d="M479.805 197.488H592.739C620.429 197.488 639.942 204.407 652.867 217.304C661.671 226.104 667.025 237.746 667.025 253.486C667.025 278.966 652.553 294.079 633.019 302.566C659.789 311.386 676.792 326.478 676.792 356.912C676.792 394.663 645.944 417.635 593.367 417.635H479.805V197.488ZM577.702 285.279C596.274 285.279 606.668 279.008 606.668 265.463C606.668 253.507 597.215 246.651 578.957 246.651H539.221V285.342L577.702 285.279ZM586.528 368.66C605.1 368.66 615.807 361.427 615.807 347.903C615.807 335.947 606.375 328.067 585.922 328.067H539.305V368.66H586.528Z" fill="#E30613"/>
<path d="M704.796 197.488H799.326C855.041 197.488 890.929 226.104 890.929 275.518C890.929 327.419 850.941 354.801 796.168 354.801H765.948V417.718H704.796V197.488ZM794.725 306.976C816.434 306.976 829.672 295.647 829.672 277.712C829.672 258.9 816.434 248.762 794.411 248.762H765.759V306.976H794.725Z" fill="#E30613"/>
<path d="M909.166 307.603C909.166 244.352 960.174 193.078 1028.17 193.078C1096.16 193.078 1146.54 243.725 1146.54 307.603C1146.54 370.854 1095.53 422.129 1027.54 422.129C959.547 422.129 909.166 371.482 909.166 307.603ZM1084.19 307.603C1084.19 275.831 1061.19 248.135 1027.54 248.135C994.18 248.135 971.823 275.309 971.823 307.603C971.823 339.375 994.829 367.071 1028.17 367.071C1061.86 367.071 1084.19 340.002 1084.19 307.603Z" fill="#E30613"/>
<path d="M1178.33 197.488H1272.75C1328.49 197.488 1364.38 226.104 1364.38 275.518C1364.38 327.419 1324.39 354.801 1269.62 354.801H1239.39V417.718H1178.33V197.488ZM1268.36 306.976C1290.07 306.976 1303.29 295.647 1303.29 277.712C1303.29 258.9 1290.07 248.762 1268.03 248.762H1239.39V306.976H1268.36Z" fill="#E30613"/>
<path d="M1444.31 195.899H1503.18L1597 417.718H1531.52L1515.46 378.338H1430.51L1414.78 417.655H1350.51L1444.31 195.899ZM1497.83 330.889L1473.27 268.181L1448.41 330.889H1497.83Z" fill="#E30613"/>
<path d="M532.842 539.873C532.851 538.267 532.941 536.662 533.114 535.066C533.323 533.247 533.512 531.805 533.7 530.718L534.034 529.087L542.4 478.921C542.995 474.901 544.96 471.209 547.963 468.47C551.252 465.74 555.447 464.345 559.717 464.561C563.643 464.424 567.485 465.716 570.529 468.198C573.742 471.136 576.184 474.818 577.64 478.921L588.389 506.847H589.602L600.352 478.921C604.019 469.348 609.993 464.561 618.275 464.561C622.563 464.353 626.775 465.746 630.092 468.47C633.121 471.183 635.079 474.89 635.613 478.921L643.978 529.087C644.717 532.636 645.109 536.248 645.15 539.873C645.223 541.475 644.959 543.075 644.375 544.569C643.792 546.063 642.901 547.419 641.761 548.548C639.276 550.804 635.997 551.984 632.643 551.829C629.258 551.973 625.945 550.822 623.378 548.61C620.917 546.326 619.339 543.247 618.924 539.915L613.507 508.833H612.336L603.343 531.512C602.185 534.921 600.228 538.003 597.633 540.5C595.249 542.532 592.19 543.598 589.059 543.489C585.889 543.599 582.791 542.535 580.359 540.5C577.744 538.031 575.801 534.938 574.712 531.512L565.719 508.833H564.548L559.152 539.915C558.736 543.247 557.159 546.326 554.697 548.61C552.111 550.816 548.788 551.965 545.391 551.829C542.022 552.007 538.72 550.842 536.21 548.59C535.071 547.452 534.184 546.088 533.604 544.587C533.024 543.086 532.764 541.48 532.842 539.873Z" fill="#1D1D1B"/>
<path d="M647.596 477.751C647.57 476.154 647.887 474.57 648.526 473.106C649.164 471.642 650.11 470.332 651.298 469.264C653.861 466.909 657.251 465.662 660.73 465.794C663.707 465.74 666.59 466.833 668.782 468.846C671.398 471.408 673.525 474.425 675.056 477.751L688.19 502.834H689.424L699.588 477.751C703.172 469.766 707.954 465.78 713.935 465.794C717.413 465.667 720.802 466.913 723.367 469.264C724.556 470.332 725.501 471.642 726.14 473.106C726.779 474.57 727.095 476.154 727.069 477.751C727.061 479.546 726.808 481.333 726.316 483.06C725.952 484.493 725.462 485.892 724.852 487.24L724.099 488.578L704.942 528.021C701.863 534.75 697.31 540.7 691.62 545.433C688.707 547.858 685.395 549.76 681.832 551.056C678.137 552.45 674.217 553.159 670.267 553.146C665.224 553.439 660.238 551.96 656.171 548.966C654.591 547.774 653.311 546.229 652.436 544.454C651.561 542.679 651.114 540.723 651.131 538.744C651.142 535.891 652.284 533.158 654.306 531.145C656.329 529.131 659.068 528 661.922 528C663.687 527.992 665.428 528.401 667.005 529.192C668.011 529.788 669.116 530.199 670.267 530.404C670.965 530.4 671.647 530.197 672.233 529.819C672.73 529.523 673.158 529.124 673.488 528.648L673.906 528L650.545 488.557C650.235 488.081 649.956 487.585 649.709 487.073C649.163 485.852 648.722 484.586 648.391 483.29C647.866 481.49 647.598 479.625 647.596 477.751Z" fill="#1D1D1B"/>
<path d="M721.088 541.044C721.049 539.596 721.365 538.161 722.008 536.863C722.602 535.729 723.42 534.726 724.413 533.916C725.375 533.122 726.504 532.306 727.655 531.491C728.931 530.593 730.121 529.578 731.21 528.46C732.459 527.167 733.547 525.729 734.452 524.175C735.581 522.057 736.385 519.781 736.836 517.424C737.503 514.185 737.818 510.885 737.777 507.579V478.921C737.707 477.307 737.983 475.696 738.585 474.197C739.188 472.698 740.103 471.344 741.269 470.226C743.958 467.918 747.436 466.742 750.973 466.944H793.408C796.926 466.737 800.388 467.898 803.07 470.184C804.234 471.312 805.145 472.674 805.744 474.18C806.342 475.686 806.614 477.302 806.542 478.921V539.873C806.611 541.482 806.337 543.088 805.738 544.583C805.14 546.079 804.23 547.43 803.07 548.548C800.28 550.65 796.881 551.788 793.387 551.788C789.893 551.788 786.494 550.65 783.704 548.548C782.537 547.433 781.622 546.083 781.02 544.587C780.418 543.091 780.142 541.484 780.211 539.873V490.877H764.107V507.599C764.147 513.035 763.557 518.457 762.351 523.757C761.379 528.207 759.788 532.499 757.624 536.508C755.763 539.864 753.409 542.922 750.639 545.58C748.224 547.951 745.387 549.851 742.273 551.181C739.35 552.365 736.226 552.975 733.071 552.979C731.484 553.051 729.898 552.797 728.412 552.233C726.927 551.668 725.573 550.805 724.434 549.697C723.323 548.554 722.453 547.198 721.878 545.711C721.303 544.224 721.034 542.637 721.088 541.044Z" fill="#1D1D1B"/>
<path d="M821.913 538.661V477.75C821.838 476.134 822.109 474.521 822.708 473.018C823.306 471.515 824.219 470.156 825.385 469.034C828.062 466.741 831.527 465.579 835.047 465.794C838.638 465.545 842.183 466.716 844.918 469.055C846.085 470.173 847 471.527 847.602 473.026C848.205 474.526 848.48 476.136 848.411 477.75V492.048H859.161C864.526 491.972 869.87 492.748 874.992 494.347C879.276 495.634 883.259 497.766 886.704 500.618C889.698 503.179 892.108 506.35 893.773 509.92C895.385 513.498 896.219 517.377 896.219 521.301C896.219 525.225 895.385 529.105 893.773 532.683C892.113 536.255 889.702 539.428 886.704 541.984C883.259 544.836 879.276 546.968 874.992 548.255C869.868 549.844 864.526 550.62 859.161 550.554H835.131C831.612 550.761 828.15 549.6 825.468 547.314C824.296 546.207 823.372 544.862 822.759 543.37C822.146 541.878 821.858 540.273 821.913 538.661ZM848.244 529.087H858.993C861.506 529.207 863.975 528.404 865.937 526.83C866.754 526.163 867.414 525.323 867.866 524.371C868.319 523.418 868.554 522.377 868.554 521.322C868.554 520.267 868.319 519.226 867.866 518.273C867.414 517.321 866.754 516.481 865.937 515.814C863.975 514.24 861.506 513.438 858.993 513.557H848.244V529.087Z" fill="#1D1D1B"/>
<path d="M894.756 487.637C892.526 485.278 891.284 482.156 891.284 478.911C891.284 475.665 892.526 472.543 894.756 470.184C897.438 467.898 900.9 466.737 904.418 466.944H957.017C960.548 466.741 964.02 467.918 966.7 470.226C968.943 472.561 970.195 475.673 970.195 478.911C970.195 482.148 968.943 485.26 966.7 487.596C964.024 489.911 960.549 491.089 957.017 490.877H943.883V539.873C943.956 541.483 943.684 543.089 943.085 544.586C942.486 546.082 941.575 547.432 940.411 548.548C937.629 550.65 934.236 551.788 930.749 551.788C927.261 551.788 923.869 550.65 921.087 548.548C919.923 547.432 919.011 546.082 918.412 544.586C917.814 543.089 917.542 541.483 917.615 539.873V490.877H904.418C900.9 491.084 897.438 489.923 894.756 487.637Z" fill="#1D1D1B"/>
<path d="M977.909 539.873V477.751C977.834 476.134 978.105 474.521 978.704 473.018C979.302 471.515 980.215 470.157 981.381 469.034C984.165 466.927 987.561 465.786 991.054 465.786C994.546 465.786 997.942 466.927 1000.73 469.034C1001.9 470.148 1002.82 471.501 1003.43 473.001C1004.03 474.501 1004.31 476.113 1004.24 477.73V505.217H1005.41L1025.72 477.751C1027.93 474.314 1030.64 471.222 1033.75 468.574C1036.26 466.691 1039.33 465.711 1042.47 465.794C1045.99 465.594 1049.45 466.771 1052.11 469.076C1053.27 470.193 1054.19 471.544 1054.79 473.039C1055.39 474.534 1055.67 476.14 1055.6 477.751V539.873C1055.68 541.483 1055.41 543.089 1054.81 544.586C1054.21 546.082 1053.3 547.432 1052.13 548.548C1049.35 550.65 1045.96 551.788 1042.47 551.788C1038.98 551.788 1035.59 550.65 1032.81 548.548C1031.64 547.432 1030.73 546.082 1030.13 544.586C1029.54 543.089 1029.26 541.483 1029.34 539.873V512.407H1028.1L1007.8 539.873C1005.59 543.293 1002.88 546.365 999.764 548.987C997.257 550.878 994.183 551.865 991.043 551.788C987.518 551.989 984.053 550.812 981.381 548.506C980.225 547.394 979.318 546.049 978.719 544.561C978.121 543.073 977.845 541.476 977.909 539.873Z" fill="#1D1D1B"/>
<path d="M1065.77 539.873C1065.77 538.266 1065.87 536.661 1066.06 535.066C1066.25 533.247 1066.44 531.805 1066.65 530.718L1066.96 529.087L1075.33 478.921C1075.92 474.901 1077.89 471.209 1080.89 468.47C1084.18 465.74 1088.37 464.345 1092.64 464.561C1096.57 464.424 1100.41 465.716 1103.45 468.198C1106.67 471.136 1109.11 474.818 1110.57 478.921L1121.32 506.847H1122.53L1133.28 478.921C1136.94 469.348 1142.92 464.561 1151.2 464.561C1155.49 464.349 1159.7 465.743 1163.02 468.47C1166.05 471.183 1168.01 474.89 1168.54 478.921L1176.9 529.087C1177.63 532.638 1178.01 536.25 1178.05 539.873C1178.13 541.475 1177.86 543.075 1177.28 544.569C1176.7 546.063 1175.81 547.419 1174.67 548.548C1173.43 549.664 1171.98 550.526 1170.41 551.082C1168.84 551.638 1167.17 551.878 1165.51 551.788C1162.12 551.931 1158.81 550.78 1156.24 548.569C1153.78 546.284 1152.2 543.205 1151.79 539.873L1146.37 508.791H1145.2L1136.21 531.47C1135.05 534.879 1133.09 537.961 1130.5 540.458C1128.11 542.49 1125.05 543.556 1121.92 543.447C1118.75 543.557 1115.65 542.493 1113.22 540.458C1110.61 537.984 1108.67 534.893 1107.57 531.47L1098.58 508.791H1097.41L1092.02 539.873C1091.61 543.208 1090.03 546.291 1087.56 548.569C1085 550.774 1081.7 551.937 1078.32 551.829C1076.65 551.917 1074.99 551.676 1073.41 551.12C1071.84 550.564 1070.4 549.704 1069.16 548.59C1068.01 547.456 1067.12 546.094 1066.53 544.592C1065.95 543.09 1065.69 541.482 1065.77 539.873Z" fill="#1D1D1B"/>
<path d="M1180.52 539.873C1180.6 538.456 1180.85 537.052 1181.25 535.693C1181.66 534.138 1182.15 532.609 1182.74 531.115L1183.49 529.192L1202.65 479.026C1204.13 474.785 1206.77 471.042 1210.26 468.219C1214.31 465.878 1218.91 464.645 1223.59 464.645C1228.28 464.645 1232.87 465.878 1236.93 468.219C1240.43 471.008 1243.06 474.744 1244.5 478.984L1263.59 529.15C1265.23 532.54 1266.25 536.191 1266.62 539.936C1266.65 541.533 1266.32 543.116 1265.68 544.577C1265.03 546.038 1264.08 547.343 1262.88 548.401C1260.3 550.734 1256.91 551.971 1253.43 551.85C1247.2 551.85 1242.43 547.879 1239.12 539.936L1236.01 532.704H1210.91L1207.92 539.873C1204.62 547.816 1199.83 551.788 1193.57 551.788C1190.1 551.916 1186.71 550.678 1184.14 548.339C1182.97 547.268 1182.04 545.958 1181.41 544.498C1180.79 543.037 1180.49 541.461 1180.52 539.873ZM1216.35 511.174H1230.72L1224.19 493.302H1222.96L1216.35 511.174Z" fill="#1D1D1B"/>
<path d="M1274.32 539.873V478.921C1274.24 477.302 1274.51 475.685 1275.11 474.178C1275.71 472.671 1276.63 471.309 1277.79 470.184C1280.47 467.898 1283.94 466.737 1287.45 466.944H1311.3C1316.67 466.873 1322.02 467.656 1327.15 469.264C1331.43 470.551 1335.42 472.683 1338.86 475.535C1341.85 478.096 1344.25 481.268 1345.91 484.836C1347.54 488.411 1348.38 492.291 1348.38 496.218C1348.38 500.144 1347.54 504.025 1345.91 507.599C1344.26 511.171 1341.85 514.344 1338.86 516.901C1335.42 519.753 1331.43 521.885 1327.15 523.172C1322.02 524.78 1316.67 525.563 1311.3 525.492H1300.57V539.831C1300.64 541.444 1300.36 543.054 1299.75 544.55C1299.15 546.047 1298.23 547.396 1297.05 548.506C1294.27 550.607 1290.87 551.743 1287.38 551.743C1283.89 551.743 1280.5 550.607 1277.71 548.506C1276.57 547.388 1275.67 546.041 1275.09 544.553C1274.5 543.064 1274.24 541.47 1274.32 539.873ZM1300.65 504.004H1311.3C1313.81 504.131 1316.28 503.327 1318.24 501.747C1319.06 501.082 1319.72 500.243 1320.18 499.29C1320.63 498.337 1320.87 497.295 1320.87 496.239C1320.87 495.183 1320.63 494.14 1320.18 493.188C1319.72 492.235 1319.06 491.395 1318.24 490.731C1316.28 489.15 1313.81 488.346 1311.3 488.474H1300.57L1300.65 504.004Z" fill="#1D1D1B"/>
<path d="M1358.54 539.873V477.75C1358.47 476.133 1358.74 474.517 1359.34 473.014C1359.94 471.51 1360.86 470.153 1362.03 469.034C1364.7 466.738 1368.16 465.575 1371.67 465.794C1375.21 465.585 1378.69 466.753 1381.38 469.055C1382.55 470.173 1383.46 471.527 1384.06 473.026C1384.67 474.526 1384.94 476.136 1384.87 477.75V494.473L1411.14 469.389C1411.51 469.034 1411.9 468.699 1412.31 468.386C1413.34 467.748 1414.43 467.223 1415.57 466.818C1417.21 466.164 1418.96 465.83 1420.72 465.836C1422.31 465.742 1423.91 465.986 1425.4 466.554C1426.9 467.121 1428.26 467.999 1429.39 469.128C1430.52 470.258 1431.39 471.614 1431.96 473.108C1432.53 474.601 1432.77 476.198 1432.68 477.792C1432.68 479.535 1432.27 481.253 1431.49 482.809C1430.91 484.085 1430.11 485.246 1429.12 486.237L1427.89 487.345L1411.16 503.461L1431.49 529.129L1432.78 530.927C1433.58 532.209 1434.28 533.55 1434.88 534.94C1435.68 536.483 1436.13 538.18 1436.21 539.915C1436.29 541.525 1436.02 543.131 1435.42 544.627C1434.82 546.123 1433.91 547.474 1432.74 548.59C1430.06 550.881 1426.6 552.043 1423.08 551.829C1421.82 551.825 1420.57 551.613 1419.38 551.202C1418.26 550.852 1417.2 550.352 1416.22 549.718C1415.36 549.133 1414.55 548.548 1413.84 547.962C1413.25 547.512 1412.72 547.008 1412.23 546.457L1411.7 545.872L1391.4 520.204L1384.85 526.161V539.915C1384.92 541.526 1384.64 543.133 1384.04 544.629C1383.44 546.125 1382.52 547.475 1381.36 548.59C1378.66 550.874 1375.18 552.034 1371.65 551.829C1368.14 552.039 1364.68 550.878 1362.01 548.59C1360.84 547.469 1359.93 546.111 1359.33 544.607C1358.73 543.104 1358.46 541.49 1358.54 539.873Z" fill="#1D1D1B"/>
<path d="M1444.02 538.661V478.921C1443.94 477.302 1444.21 475.685 1444.81 474.178C1445.41 472.671 1446.32 471.309 1447.49 470.184C1450.17 467.892 1453.63 466.731 1457.15 466.944H1502.62C1506.13 466.737 1509.6 467.898 1512.28 470.184C1514.51 472.543 1515.75 475.665 1515.75 478.911C1515.75 482.156 1514.51 485.278 1512.28 487.637C1509.6 489.923 1506.13 491.084 1502.62 490.877H1470.24V498.047H1493.04C1496.21 497.91 1499.31 499.021 1501.68 501.141C1502.75 502.103 1503.6 503.284 1504.17 504.604C1504.74 505.924 1505.03 507.352 1505 508.791C1505.02 510.232 1504.74 511.662 1504.17 512.985C1503.59 514.308 1502.74 515.493 1501.68 516.462C1499.31 518.588 1496.21 519.705 1493.04 519.577H1470.24V526.746H1503.7C1507.22 526.536 1510.67 527.698 1513.34 529.986C1515.59 532.338 1516.84 535.463 1516.84 538.713C1516.84 541.963 1515.59 545.088 1513.34 547.44C1510.67 549.728 1507.22 550.89 1503.7 550.68H1457.07C1453.55 550.893 1450.08 549.731 1447.4 547.44C1446.24 546.305 1445.34 544.934 1444.75 543.419C1444.17 541.904 1443.92 540.281 1444.02 538.661Z" fill="#1D1D1B"/>
<path d="M1521.54 487.637C1519.31 485.278 1518.07 482.156 1518.07 478.911C1518.07 475.665 1519.31 472.543 1521.54 470.184C1524.22 467.898 1527.69 466.737 1531.21 466.944H1583.8C1587.33 466.741 1590.81 467.918 1593.49 470.226C1595.73 472.561 1596.98 475.673 1596.98 478.911C1596.98 482.148 1595.73 485.26 1593.49 487.596C1590.81 489.911 1587.34 491.089 1583.8 490.877H1570.63V539.873C1570.7 541.483 1570.43 543.089 1569.83 544.586C1569.23 546.082 1568.32 547.432 1567.16 548.548C1564.37 550.65 1560.98 551.788 1557.49 551.788C1554.01 551.788 1550.61 550.65 1547.83 548.548C1546.67 547.43 1545.76 546.079 1545.16 544.583C1544.56 543.088 1544.29 541.482 1544.36 539.873V490.877H1531.16C1527.66 491.073 1524.21 489.913 1521.54 487.637Z" fill="#1D1D1B"/>
<path d="M233.816 103.949H317.095L449.793 417.718H357.166L334.454 362.096H214.22L191.947 417.718H101.118L233.816 103.949ZM309.525 294.873L274.787 206.309L239.61 294.873H309.525Z" fill="#E30613"/>
</g>
<defs>
<clipPath id="clip0">
<rect width="1597" height="553" fill="white"/>
</clipPath>
</defs>
</svg>
