<svg xmlns="http://www.w3.org/2000/svg" width="120.826" height="35.833" viewBox="0 0 120.826 35.833"><defs><style>.a{fill:#7ab929;}.b{fill:#fff;}.c{fill:#e6332a;}.d{fill:none;}</style></defs><g transform="translate(-171.1 -215.9)"><g transform="translate(171.1 215.925)"><path class="a" d="M253.88,216H182.265A11.138,11.138,0,0,0,171.1,227.19v24.618h71.59a11.159,11.159,0,0,0,11.19-11.19Z" transform="translate(-171.1 -216)"/><g transform="translate(11.115 11.115)"><path class="b" d="M230.123,260.7h-.1a6.068,6.068,0,0,0-2.735.647,1.636,1.636,0,0,0-1.393-.647,1.606,1.606,0,0,0-1.393.647,5.991,5.991,0,0,0-2.735-.647h-.1a5.8,5.8,0,0,0-4.153,1.641,5.274,5.274,0,0,0-1.716,3.954v2.337a5.274,5.274,0,0,0,1.716,3.954,5.8,5.8,0,0,0,4.153,1.641h.1a5.948,5.948,0,0,0,2.387-.5v1.119a1.718,1.718,0,0,0,.5,1.194,1.669,1.669,0,0,0,1.218.472,1.636,1.636,0,0,0,1.144-.423,1.529,1.529,0,0,0,.572-.97c0-.1.025-.174.025-.274V273.73A5.929,5.929,0,0,0,230,274.2h.1a5.8,5.8,0,0,0,4.153-1.641,5.274,5.274,0,0,0,1.716-3.954V266.27a5.274,5.274,0,0,0-1.716-3.954A5.785,5.785,0,0,0,230.123,260.7Zm0,10.2h-.1a2.346,2.346,0,0,1-1.691-.671,2.11,2.11,0,0,1-.7-1.616V266.27a2.11,2.11,0,0,1,.7-1.616,2.346,2.346,0,0,1,1.691-.671h.1a2.346,2.346,0,0,1,1.691.671,2.11,2.11,0,0,1,.7,1.616v2.337a2.11,2.11,0,0,1-.7,1.616A2.346,2.346,0,0,1,230.123,270.9Zm-8.355,0h-.1a2.346,2.346,0,0,1-1.691-.671,2.11,2.11,0,0,1-.7-1.616V266.27a2.11,2.11,0,0,1,.7-1.616,2.346,2.346,0,0,1,1.691-.671h.1a2.346,2.346,0,0,1,1.691.671,2.133,2.133,0,0,1,.721,1.616v2.337a2.051,2.051,0,0,1-.721,1.616A2.346,2.346,0,0,1,221.768,270.9Z" transform="translate(-215.8 -260.7)"/><path class="b" d="M307.717,260.7h-.1a6.219,6.219,0,0,0-4.327,1.641,5.174,5.174,0,0,0-1.79,3.954v2.337a5.174,5.174,0,0,0,1.79,3.954,6.176,6.176,0,0,0,4.327,1.641h.1a6.219,6.219,0,0,0,4.327-1.641,5.174,5.174,0,0,0,1.79-3.954v-2.337a5.174,5.174,0,0,0-1.79-3.954A6.219,6.219,0,0,0,307.717,260.7Zm0,10.2h-.1a2.523,2.523,0,0,1-1.766-.671,2.051,2.051,0,0,1-.721-1.616V266.27a2.133,2.133,0,0,1,.721-1.616,2.523,2.523,0,0,1,1.766-.671h.1a2.422,2.422,0,0,1,1.741.671,2.075,2.075,0,0,1,.746,1.616v2.337a2.111,2.111,0,0,1-.746,1.616A2.422,2.422,0,0,1,307.717,270.9Z" transform="translate(-280.19 -260.7)"/><path class="b" d="M361.692,260.7h-.1a6.411,6.411,0,0,0-2.835.647,1.732,1.732,0,0,0-1.442-.647,1.867,1.867,0,0,0-1.293.5,1.551,1.551,0,0,0-.522,1.169v12.508a1.643,1.643,0,0,0,.522,1.194,1.967,1.967,0,0,0,1.293.472,1.8,1.8,0,0,0,1.293-.5,1.551,1.551,0,0,0,.522-1.169v-1.169a6.415,6.415,0,0,0,2.487.472h.1a6.218,6.218,0,0,0,4.327-1.641,5.174,5.174,0,0,0,1.79-3.954v-2.337a5.174,5.174,0,0,0-1.79-3.954A6.474,6.474,0,0,0,361.692,260.7Zm0,10.17h-.1a2.523,2.523,0,0,1-1.766-.671,2.051,2.051,0,0,1-.721-1.616v-2.337a2.133,2.133,0,0,1,.721-1.616,2.523,2.523,0,0,1,1.766-.671h.1a2.422,2.422,0,0,1,1.741.671,2.075,2.075,0,0,1,.746,1.616v2.337a2.111,2.111,0,0,1-.746,1.616A2.323,2.323,0,0,1,361.692,270.87Z" transform="translate(-320.762 -260.7)"/><path class="b" d="M421.287,261.172a1.828,1.828,0,0,0-1.268-.472,1.749,1.749,0,0,0-1.467.647,6.49,6.49,0,0,0-2.835-.647h-.1a6.218,6.218,0,0,0-4.327,1.641,5.174,5.174,0,0,0-1.79,3.954v2.337a5.174,5.174,0,0,0,1.79,3.954,6.176,6.176,0,0,0,4.327,1.641h.1a6.411,6.411,0,0,0,2.835-.646,1.749,1.749,0,0,0,1.467.646,1.855,1.855,0,0,0,1.268-.472,1.589,1.589,0,0,0,.547-1.194v-10.2A1.589,1.589,0,0,0,421.287,261.172Zm-5.57,9.723h-.1a2.523,2.523,0,0,1-1.766-.671,2.051,2.051,0,0,1-.721-1.616V266.27a2.133,2.133,0,0,1,.721-1.616,2.523,2.523,0,0,1,1.766-.671h.1a2.421,2.421,0,0,1,1.741.671,2.075,2.075,0,0,1,.746,1.616v2.337a2.111,2.111,0,0,1-.746,1.616A2.422,2.422,0,0,1,415.717,270.9Z" transform="translate(-361.334 -260.7)"/></g></g><g transform="translate(256.118 215.9)"><path class="c" d="M537.593,215.9H513l.025,24.593a11.249,11.249,0,0,0,11.19,11.24h13.378a11.249,11.249,0,0,0,11.215-11.215V227.164A11.292,11.292,0,0,0,537.593,215.9Z" transform="translate(-513 -215.9)"/><path class="d" d="M567.05,277.715a.384.384,0,1,0,.522-.149A.393.393,0,0,0,567.05,277.715Z" transform="translate(-553.572 -262.198)"/><path class="d" d="M600.337,277.715a.384.384,0,1,0-.149.522A.4.4,0,0,0,600.337,277.715Z" transform="translate(-578.081 -262.198)"/><path class="d" d="M589.319,286H589a.593.593,0,0,0-.646.522l-.05,4.6c0,.224.224.373.522.373h.273a.544.544,0,0,0,.572-.373l.249-4.6A.561.561,0,0,0,589.319,286Z" transform="translate(-569.576 -268.569)"/><path class="d" d="M563.546,286.522a.738.738,0,0,0-.721-.522H562.5a.556.556,0,0,0-.522.646l.8,4.476a.508.508,0,0,0,.547.373h.323c.3,0,.5-.174.472-.373Z" transform="translate(-549.795 -268.569)"/><path class="d" d="M576.19,286h-.323a.511.511,0,0,0-.572.522l.373,4.6c.025.224.274.373.572.373h.273c.3,0,.522-.174.522-.373l-.174-4.6A.657.657,0,0,0,576.19,286Z" transform="translate(-559.803 -268.569)"/><path class="d" d="M601.286,286h-.323a.663.663,0,0,0-.7.522l-.472,4.6c-.025.224.2.373.472.373h.348a.483.483,0,0,0,.522-.373l.671-4.476A.553.553,0,0,0,601.286,286Z" transform="translate(-578.21 -268.569)"/><path class="b" d="M566.358,260.67h-3.879l-2.536-4.227a.717.717,0,0,0-.97-.249l-.273.174a.717.717,0,0,0-.249.97l1.119,1.865.87,1.467,1.218,2.014a1.868,1.868,0,0,1-.4-.373l-1.343-1.641h-3.705l-1.343,1.641a1.4,1.4,0,0,1-.4.373l1.218-2.014.87-1.467,1.119-1.865a.7.7,0,0,0-.249-.97l-.273-.174a.7.7,0,0,0-.97.249l-2.536,4.227h-3.829a.688.688,0,0,0-.622.572l.05,1.144a.594.594,0,0,0,.6.5h.323l1.044,6.59c.323,1.293,1.144,1.293,2.362,1.268l9.524-.025c1.169,0,1.716-.149,2.039-1.343l1.044-6.49h.3c.273,0,.622-.224.622-.5v-1.169A.907.907,0,0,0,566.358,260.67Zm-12.682.945a.384.384,0,1,1,.149.522A.359.359,0,0,1,553.676,261.615Zm.4,7.435h-.323a.513.513,0,0,1-.547-.373l-.8-4.476a.553.553,0,0,1,.522-.647h.323a.711.711,0,0,1,.721.522l.6,4.6C554.6,268.875,554.372,269.05,554.074,269.05Zm2.835,0h-.274a.544.544,0,0,1-.572-.373l-.373-4.6a.524.524,0,0,1,.572-.522h.323a.593.593,0,0,1,.647.522l.174,4.6C557.431,268.875,557.207,269.05,556.909,269.05Zm3.382-.4c-.025.224-.274.373-.572.373h-.273c-.3,0-.522-.174-.522-.373l.05-4.6a.611.611,0,0,1,.646-.522h.323c.348,0,.622.224.6.522Zm2.163-7.037a.384.384,0,1,1-.522-.149A.4.4,0,0,1,562.454,261.615Zm1.368,2.561-.671,4.476a.479.479,0,0,1-.522.373h-.348c-.3,0-.522-.174-.473-.373l.473-4.6a.707.707,0,0,1,.7-.522h.323A.585.585,0,0,1,563.821,264.176Z" transform="translate(-540.198 -246.098)"/></g></g></svg>