<svg xmlns="http://www.w3.org/2000/svg" viewBox="0 0 2602.23 504"><defs><style>.cls-1{fill:#dd463c;}</style></defs><title>tiras</title><g id="Layer_2" data-name="Layer 2"><g id="Layer_1-2" data-name="Layer 1"><g id="Layer_2-2" data-name="Layer 2-2"><polygon points="351.62 353.18 508.02 265.93 537.07 168.11 351.62 271.56 351.62 353.18"/><polygon points="351.62 504 454.35 446.7 483.4 348.88 351.62 422.38 351.62 504"/><polygon points="78.69 265.93 235.1 353.18 235.1 271.56 49.65 168.11 78.69 265.93"/><polygon points="132.37 446.7 235.1 504 235.1 422.38 103.32 348.88 132.37 446.7"/><polygon class="cls-1" points="0 0 0 71.55 235.1 202.69 235.1 121.08 146.3 71.55 440.41 71.55 351.62 121.08 351.62 202.69 586.72 71.55 586.72 0 0 0"/></g><rect x="1201.42" y="71.13" width="71.95" height="359.77" rx="2.84" ry="2.84"/><path d="M2051.14,71.09H1901.68a28.36,28.36,0,0,0-27.17,20.28L1783,399.07a2.71,2.71,0,0,0-.11.8v28.2a2.81,2.81,0,0,0,2.81,2.82h60.86a2.8,2.8,0,0,0,2.7-2l20.12-67.95a2.82,2.82,0,0,1,2.71-2h208.39a2.81,2.81,0,0,1,2.7,2l20.12,67.95a2.82,2.82,0,0,0,2.7,2h60.86a2.82,2.82,0,0,0,2.82-2.82h0l0-28.2a3,3,0,0,0-.11-.79L2078.35,91.35A28.34,28.34,0,0,0,2051.14,71.09ZM1892.32,283.37l41-138.25a2.83,2.83,0,0,1,2.73-2h80.47a2.83,2.83,0,0,1,2.73,2l41,138.25a2.81,2.81,0,0,1-1.9,3.5,2.42,2.42,0,0,1-.8.11H1895.06a2.81,2.81,0,0,1-2.85-2.78A2.91,2.91,0,0,1,1892.32,283.37Z"/><path d="M2581.92,260.76l-265.48-78.67a2.82,2.82,0,0,1-2-2.7V145.91a2.83,2.83,0,0,1,2.83-2.83h253.84a2.83,2.83,0,0,0,2-.83l28.3-28.29a2.86,2.86,0,0,0,.82-2V74a2.82,2.82,0,0,0-2.82-2.82H2270.79a28.33,28.33,0,0,0-28.33,28.33h0V214a28.36,28.36,0,0,0,20.32,27.2l265.46,78.68a2.81,2.81,0,0,1,2,2.71v33.52a2.81,2.81,0,0,1-2.8,2.83h0l-253.18.14a2.78,2.78,0,0,0-2,.82l-29,29a2.83,2.83,0,0,0-.83,2v37.16a2.83,2.83,0,0,0,2.83,2.83h328.57a28.37,28.37,0,0,0,28.37-28.36V287.94A28.38,28.38,0,0,0,2581.92,260.76Z"/><path d="M1126.49,112.12V74a2.84,2.84,0,0,0-2.84-2.83H769.56A2.84,2.84,0,0,0,766.72,74h0v66.28a2.84,2.84,0,0,0,2.84,2.84H907.79a2.84,2.84,0,0,1,2.84,2.84h0V428.05a2.84,2.84,0,0,0,2.83,2.84h66.28a2.84,2.84,0,0,0,2.84-2.84h0V145.92a2.84,2.84,0,0,1,2.84-2.84h110.1a2.81,2.81,0,0,0,2-.83l28.14-28.13A2.88,2.88,0,0,0,1126.49,112.12Z"/><path d="M1710.21,101.63a28.69,28.69,0,0,0-28.68-28.69H1362.7a3.69,3.69,0,0,0-3.68,3.69V429.27a3.68,3.68,0,0,0,3.68,3.68h64.64a3.68,3.68,0,0,0,3.68-3.68V337.11a3.67,3.67,0,0,1,2.64-3.53L1553.91,298a3.69,3.69,0,0,1,4.13,1.52l85.59,131.8a3.69,3.69,0,0,0,3.09,1.67h59.81a3.68,3.68,0,0,0,3.68-3.68V402.69a3.7,3.7,0,0,0-.6-2L1631.23,280a3.69,3.69,0,0,1,2-5.54l56.4-16.71a28.67,28.67,0,0,0,20.54-27.5ZM1434.7,145h199.82a3.68,3.68,0,0,1,3.69,3.68v46.52a3.7,3.7,0,0,1-2.64,3.53l-199.82,59.19a3.68,3.68,0,0,1-4.73-3.53V148.63A3.68,3.68,0,0,1,1434.7,145Z"/></g></g></svg>