<svg width="888" height="286" viewBox="0 0 888 286" fill="none" xmlns="http://www.w3.org/2000/svg">
<g clip-path="url(#clip0_1_60)">
<path d="M207.59 141.876L284.52 64.946C285.32 64.146 285.32 62.8559 284.52 62.0559L274.4 51.9359C273.6 51.1359 272.3 51.1359 271.51 51.9359L183 140.446C182.2 141.246 182.2 142.536 183 143.336L193.12 153.456L271.29 231.626C272.09 232.426 273.38 232.426 274.18 231.626L284.3 221.506C285.1 220.706 285.1 219.416 284.3 218.616L207.59 141.876Z" fill="white"/>
<path d="M63.06 128.365C63.86 129.165 65.15 129.165 65.95 128.365L76.07 118.245C76.87 117.445 76.87 116.155 76.07 115.355L13.61 52.9047C12.81 52.1047 11.52 52.1047 10.72 52.9047L0.6 63.0247C-0.2 63.8247 -0.2 65.1147 0.6 65.9147L63.06 128.365Z" fill="white"/>
<path d="M233.1 11.6175L221.85 0.3675C221.36 -0.1225 220.57 -0.1225 220.08 0.3675L142.58 77.8675L65.6094 0.897499C64.8094 0.0974988 63.5194 0.0974988 62.7194 0.897499L52.5994 11.0175C51.7994 11.8175 51.7994 13.1075 52.5994 13.9075L129.57 90.8775L0.619453 219.837C0.129453 220.327 0.129453 221.118 0.619453 221.608L11.8694 232.858C12.3594 233.348 13.1494 233.348 13.6394 232.858L233.1 13.3875C233.59 12.8975 233.59 12.1075 233.1 11.6175Z" fill="#DE210D"/>
<path d="M144.03 182.295C143.23 181.495 141.94 181.495 141.14 182.295L131.01 192.415L53.1605 270.265C52.3605 271.065 52.3605 272.355 53.1605 273.155L63.2806 283.275C64.0806 284.075 65.3705 284.075 66.1705 283.275L142.57 206.875L219.29 283.595C220.09 284.395 221.38 284.395 222.18 283.595L232.3 273.475C233.1 272.675 233.1 271.385 232.3 270.585L144.03 182.295Z" fill="white"/>
<path d="M115.23 156.389L105.11 166.509C104.31 167.309 104.31 168.599 105.11 169.399L115.06 179.349C115.86 180.149 117.15 180.149 117.95 179.349L128.07 169.229C128.87 168.429 128.87 167.139 128.07 166.339L118.12 156.389C117.33 155.589 116.03 155.589 115.23 156.389Z" fill="white"/>
<path d="M169.94 156.389C169.14 155.589 167.85 155.589 167.05 156.389L157.1 166.339C156.3 167.139 156.3 168.429 157.1 169.229L167.22 179.349C168.02 180.149 169.31 180.149 170.11 179.349L180.06 169.399C180.86 168.599 180.86 167.309 180.06 166.509L169.94 156.389Z" fill="white"/>
<path d="M180.06 114.347L170.11 104.397C169.31 103.597 168.02 103.597 167.22 104.397L157.1 114.517C156.3 115.317 156.3 116.607 157.1 117.407L167.05 127.357C167.85 128.157 169.14 128.157 169.94 127.357L180.06 117.237C180.86 116.437 180.86 115.147 180.06 114.347Z" fill="white"/>
<path d="M366.887 31.3817L379.579 0.296875H392.27L372.957 46.9241C367.807 59.4316 359.346 65.3481 347.574 64.6737V52.81C350.946 53.1165 353.675 52.6567 355.759 51.4304C357.905 50.2042 359.714 48.1503 361.185 45.2687L340.125 0.296875H352.816L366.887 31.3817Z" fill="#DE210D"/>
<path d="M421.94 41.4033L440.977 64.671H427.182L410.444 43.7945V64.671H398.58V18.6875H410.444V38.9202L426.262 18.6875H440.425L421.94 41.4033Z" fill="white"/>
<path d="M473.661 17.3984C479.853 17.3984 485.126 19.7589 489.479 24.4798C493.894 29.2008 496.101 34.9334 496.101 41.6777C496.101 48.5445 493.894 54.3078 489.479 58.9674C485.187 63.6271 479.915 65.9569 473.661 65.9569C467.223 65.9569 462.257 63.7191 458.762 59.2433V83.0628H446.898V18.6859H458.762V24.112C462.257 19.6363 467.223 17.3984 473.661 17.3984ZM462.349 51.0583C464.74 53.4494 467.775 54.645 471.454 54.645C475.132 54.645 478.167 53.4494 480.558 51.0583C483.011 48.6058 484.237 45.479 484.237 41.6777C484.237 37.8764 483.011 34.7801 480.558 32.389C478.167 29.9365 475.132 28.7103 471.454 28.7103C467.775 28.7103 464.74 29.9365 462.349 32.389C459.958 34.7801 458.762 37.8764 458.762 41.6777C458.762 45.479 459.958 48.6058 462.349 51.0583Z" fill="white"/>
<path d="M539.415 24.112V18.6859H551.279V64.6694H539.415V59.2433C535.859 63.7191 530.862 65.9569 524.425 65.9569C518.294 65.9569 513.021 63.6271 508.606 58.9674C504.253 54.2465 502.077 48.4832 502.077 41.6777C502.077 34.9334 504.253 29.2008 508.606 24.4798C513.021 19.7589 518.294 17.3984 524.425 17.3984C530.862 17.3984 535.859 19.6363 539.415 24.112ZM517.527 51.0583C519.918 53.4494 522.953 54.645 526.632 54.645C530.311 54.645 533.345 53.4494 535.737 51.0583C538.189 48.6058 539.415 45.479 539.415 41.6777C539.415 37.8764 538.189 34.7801 535.737 32.389C533.345 29.9365 530.311 28.7103 526.632 28.7103C522.953 28.7103 519.918 29.9365 517.527 32.389C515.136 34.7801 513.94 37.8764 513.94 41.6777C513.94 45.479 515.136 48.6058 517.527 51.0583Z" fill="white"/>
<path d="M563.508 12.4338C562.343 13.5987 560.903 14.1812 559.186 14.1812C557.469 14.1812 555.998 13.5987 554.771 12.4338C553.545 11.2076 552.932 9.73609 552.932 8.01937C552.932 6.30265 553.545 4.83119 554.771 3.60497C555.998 2.37874 557.469 1.76562 559.186 1.76562C560.903 1.76562 562.343 2.37874 563.508 3.60497C564.735 4.83119 565.348 6.30265 565.348 8.01937C565.348 9.73609 564.735 11.2076 563.508 12.4338ZM580.982 12.4338C579.817 13.5987 578.376 14.1812 576.66 14.1812C574.943 14.1812 573.471 13.5987 572.245 12.4338C571.019 11.2076 570.406 9.73609 570.406 8.01937C570.406 6.30265 571.019 4.83119 572.245 3.60497C573.471 2.37874 574.943 1.76562 576.66 1.76562C578.376 1.76562 579.817 2.37874 580.982 3.60497C582.208 4.83119 582.821 6.30265 582.821 8.01937C582.821 9.73609 582.208 11.2076 580.982 12.4338ZM573.901 64.671H562.037V18.6876H573.901V64.671Z" fill="white"/>
<path d="M614.924 36.0692V18.6875H626.788V64.671H614.924V47.1972H596.623V64.671H584.759V18.6875H596.623V36.0692H614.924Z" fill="white"/>
<path d="M659.546 65.9569C652.618 65.9569 646.824 63.6271 642.165 58.9674C637.566 54.3078 635.267 48.5445 635.267 41.6777C635.267 34.8108 637.566 29.0475 642.165 24.3879C646.824 19.7282 652.618 17.3984 659.546 17.3984C664.022 17.3984 668.099 18.4713 671.778 20.6172C675.457 22.7631 678.246 25.6448 680.147 29.2621L669.939 35.24C669.019 33.3393 667.609 31.8372 665.708 30.7336C663.869 29.63 661.784 29.0782 659.454 29.0782C655.898 29.0782 652.955 30.2738 650.626 32.6649C648.296 34.9947 647.131 37.999 647.131 41.6777C647.131 45.2337 648.296 48.238 650.626 50.6904C652.955 53.0202 655.898 54.1852 659.454 54.1852C661.846 54.1852 663.961 53.664 665.8 52.6217C667.701 51.5181 669.111 50.016 670.031 48.1153L680.331 54.0012C678.308 57.6799 675.426 60.5922 671.686 62.7381C668.007 64.884 663.961 65.9569 659.546 65.9569Z" fill="white"/>
<path d="M698.829 33.4022H707.749C712.961 33.4022 717.161 34.843 720.349 37.7246C723.537 40.545 725.131 44.3156 725.131 49.0366C725.131 53.7575 723.537 57.5588 720.349 60.4405C717.161 63.2608 712.961 64.671 707.749 64.671H686.965V18.6875H698.829V33.4022ZM698.829 54.1867H707.841C709.497 54.1867 710.846 53.7269 711.888 52.8072C712.991 51.8262 713.543 50.5694 713.543 49.0366C713.543 47.5038 712.991 46.2469 711.888 45.2659C710.846 44.285 709.497 43.7945 707.841 43.7945H698.829V54.1867Z" fill="white"/>
<path d="M755.948 41.4033L774.986 64.671H761.191L744.453 43.7945V64.671H732.589V18.6875H744.453V38.9202L760.271 18.6875H774.434L755.948 41.4033Z" fill="white"/>
<path d="M812.532 24.112V18.6859H824.396V64.6694H812.532V59.2433C808.976 63.7191 803.979 65.9569 797.541 65.9569C791.41 65.9569 786.137 63.6271 781.723 58.9674C777.37 54.2465 775.193 48.4832 775.193 41.6777C775.193 34.9334 777.37 29.2008 781.723 24.4798C786.137 19.7589 791.41 17.3984 797.541 17.3984C803.979 17.3984 808.976 19.6363 812.532 24.112ZM790.644 51.0583C793.035 53.4494 796.07 54.645 799.749 54.645C803.427 54.645 806.462 53.4494 808.853 51.0583C811.306 48.6058 812.532 45.479 812.532 41.6777C812.532 37.8764 811.306 34.7801 808.853 32.389C806.462 29.9365 803.427 28.7103 799.749 28.7103C796.07 28.7103 793.035 29.9365 790.644 32.389C788.253 34.7801 787.057 37.8764 787.057 41.6777C787.057 45.479 788.253 48.6058 790.644 51.0583Z" fill="white"/>
<path d="M377.447 175.073C367.841 175.073 359.856 171.861 353.492 165.437C347.19 159.073 344.039 151.149 344.039 141.666C344.039 132.12 347.19 124.197 353.492 117.894C359.856 111.47 367.841 108.258 377.447 108.258C383.26 108.258 388.614 109.634 393.508 112.388C398.465 115.08 402.319 118.751 405.073 123.401L394.151 129.734C392.56 126.858 390.296 124.625 387.359 123.034C384.422 121.382 381.118 120.556 377.447 120.556C371.206 120.556 366.158 122.514 362.303 126.43C358.51 130.407 356.613 135.486 356.613 141.666C356.613 147.784 358.51 152.832 362.303 156.809C366.158 160.725 371.206 162.683 377.447 162.683C381.118 162.683 384.422 161.888 387.359 160.297C390.357 158.645 392.621 156.411 394.151 153.597L405.073 159.93C402.319 164.58 398.465 168.282 393.508 171.035C388.614 173.727 383.26 175.073 377.447 175.073Z" fill="white"/>
<path d="M408.521 127.898H449.18V139.279H434.862V173.788H423.023V139.279H408.521V127.898Z" fill="white"/>
<path d="M475.953 158.737L486.141 127.898H498.807L482.103 173.788C477.453 186.699 469.376 192.818 457.873 192.144V181.131C460.993 181.192 463.441 180.611 465.215 179.387C467.051 178.163 468.519 176.114 469.621 173.238L451.081 127.898H463.655L475.953 158.737Z" fill="white"/>
<path d="M542.874 127.898V162.683H548.931V186.087H537.367V173.788H508.915V186.087H497.351V162.683H502.95C505.581 158.767 506.896 153.352 506.896 146.438V127.898H542.874ZM515.615 162.683H531.31V138.545H518.46V146.438C518.46 153.046 517.512 158.461 515.615 162.683Z" fill="white"/>
<path d="M599.238 155.703H564.637C566.167 161.454 570.481 164.33 577.578 164.33C582.106 164.33 585.533 162.8 587.858 159.741L597.403 165.248C592.875 171.795 586.206 175.068 577.395 175.068C569.808 175.068 563.72 172.774 559.131 168.185C554.542 163.596 552.247 157.814 552.247 150.838C552.247 143.986 554.511 138.234 559.039 133.584C563.505 128.934 569.318 126.609 576.477 126.609C583.269 126.609 588.806 128.934 593.089 133.584C597.495 138.234 599.697 143.986 599.697 150.838C599.697 152.123 599.544 153.745 599.238 155.703ZM564.454 146.525H587.858C587.185 143.527 585.808 141.232 583.728 139.641C581.708 138.05 579.292 137.255 576.477 137.255C573.295 137.255 570.664 138.081 568.584 139.733C566.504 141.324 565.127 143.588 564.454 146.525Z" fill="white"/>
<path d="M638.066 145.245V127.898H649.906V173.788H638.066V156.35H619.802V173.788H607.962V127.898H619.802V145.245H638.066Z" fill="white"/>
<path d="M656.257 127.898H696.915V139.279H682.598V173.788H670.758V139.279H656.257V127.898Z" fill="white"/>
<path d="M723.289 175.068C716.375 175.068 710.593 172.743 705.943 168.093C701.354 163.443 699.059 157.691 699.059 150.838C699.059 143.986 701.354 138.234 705.943 133.584C710.593 128.934 716.375 126.609 723.289 126.609C727.756 126.609 731.825 127.679 735.496 129.821C739.167 131.962 741.951 134.838 743.848 138.448L733.66 144.414C732.742 142.517 731.335 141.018 729.438 139.917C727.603 138.815 725.522 138.265 723.197 138.265C719.648 138.265 716.711 139.458 714.386 141.844C712.061 144.169 710.899 147.167 710.899 150.838C710.899 154.387 712.061 157.385 714.386 159.833C716.711 162.158 719.648 163.321 723.197 163.321C725.584 163.321 727.694 162.8 729.53 161.76C731.427 160.659 732.834 159.16 733.752 157.263L744.031 163.137C742.012 166.808 739.136 169.715 735.404 171.856C731.733 173.998 727.694 175.068 723.289 175.068Z" fill="white"/>
<path d="M762.491 142.583H771.394C776.595 142.583 780.786 144.021 783.968 146.897C787.15 149.712 788.741 153.474 788.741 158.186C788.741 162.897 787.15 166.691 783.968 169.567C780.786 172.381 776.595 173.788 771.394 173.788H750.652V127.898H762.491V142.583ZM762.491 163.326H771.486C773.138 163.326 774.484 162.867 775.524 161.949C776.626 160.97 777.176 159.716 777.176 158.186C777.176 156.656 776.626 155.402 775.524 154.423C774.484 153.444 773.138 152.954 771.486 152.954H762.491V163.326Z" fill="white"/>
<path d="M819.495 150.568L838.494 173.788H824.727L808.023 152.954V173.788H796.183V127.898H808.023V148.09L823.809 127.898H837.943L819.495 150.568Z" fill="white"/>
<path d="M875.964 133.308V127.893H887.803V173.783H875.964V168.368C872.415 172.835 867.428 175.068 861.004 175.068C854.885 175.068 849.623 172.743 845.218 168.093C840.873 163.382 838.701 157.63 838.701 150.838C838.701 144.108 840.873 138.387 845.218 133.676C849.623 128.964 854.885 126.609 861.004 126.609C867.428 126.609 872.415 128.842 875.964 133.308ZM854.12 160.2C856.506 162.586 859.535 163.779 863.206 163.779C866.878 163.779 869.906 162.586 872.293 160.2C874.74 157.753 875.964 154.632 875.964 150.838C875.964 147.045 874.74 143.955 872.293 141.569C869.906 139.121 866.878 137.897 863.206 137.897C859.535 137.897 856.506 139.121 854.12 141.569C851.734 143.955 850.541 147.045 850.541 150.838C850.541 154.632 851.734 157.753 854.12 160.2Z" fill="white"/>
<path d="M342.02 283.785V272.037C345.935 272.587 348.811 271.792 350.647 269.65C352.482 267.448 353.4 263.409 353.4 257.535V219.539H397.088V283.785H384.514V231.653H365.974V257.168C365.974 268.243 363.435 275.738 358.356 279.654C354.012 283.081 348.567 284.458 342.02 283.785Z" fill="white"/>
<path d="M414.322 232.39C412.364 232.39 410.651 231.686 409.182 230.279C407.775 228.81 407.071 227.097 407.071 225.139C407.071 223.181 407.775 221.468 409.182 220C410.651 218.531 412.364 217.797 414.322 217.797C416.341 217.797 418.054 218.531 419.462 220C420.93 221.468 421.664 223.181 421.664 225.139C421.664 227.097 420.93 228.81 419.462 230.279C418.054 231.686 416.341 232.39 414.322 232.39ZM420.288 283.787H408.448V237.897H420.288V283.787Z" fill="white"/>
<path d="M431.125 237.898H462.513V249.278H442.964V283.788H431.125V237.898Z" fill="white"/>
<path d="M501.942 243.309V237.894H513.782V283.784H501.942V278.369C498.393 282.835 493.406 285.069 486.982 285.069C480.863 285.069 475.601 282.744 471.196 278.093C466.851 273.382 464.679 267.63 464.679 260.839C464.679 254.108 466.851 248.387 471.196 243.676C475.601 238.964 480.863 236.609 486.982 236.609C493.406 236.609 498.393 238.842 501.942 243.309ZM480.098 270.2C482.485 272.587 485.513 273.78 489.184 273.78C492.856 273.78 495.884 272.587 498.271 270.2C500.718 267.753 501.942 264.632 501.942 260.839C501.942 257.045 500.718 253.955 498.271 251.569C495.884 249.121 492.856 247.898 489.184 247.898C485.513 247.898 482.485 249.121 480.098 251.569C477.712 253.955 476.519 257.045 476.519 260.839C476.519 264.632 477.712 267.753 480.098 270.2Z" fill="white"/>
</g>
<defs>
<clipPath id="clip0_1_60">
<rect width="888" height="286" fill="white"/>
</clipPath>
</defs>
</svg>
