<svg width="300" height="300" viewBox="0 0 300 300" fill="none" xmlns="http://www.w3.org/2000/svg">
<circle cx="150" cy="150" r="150" fill="#FFE241"/>
<path d="M172.92 234.681C166.74 223.241 153.807 219.455 153.807 219.455C145.863 216.97 117.153 219.294 110.141 217.872C103.129 216.449 97.048 216.089 94.8542 217.972C92.6604 219.855 95.1847 222.81 98.4104 224.223C108.087 228.48 130.336 232.167 130.336 232.167C130.336 232.167 101.285 245.55 70.0809 210.038C61.1754 199.921 55.0547 205.03 57.8095 209.397C66.1841 223.011 95.4151 262.169 156.642 262.169C199.166 262.169 233.506 236.745 251.127 208.385C253.751 204.158 251.297 202.105 246.308 207.173C231.302 222.4 204.355 242.354 172.92 234.681Z" fill="#008ECC"/>
<path d="M138.731 65.3088C144.911 76.7387 157.834 80.5252 157.834 80.5252C165.778 83.0096 194.488 80.6855 201.5 82.108C208.512 83.5305 214.593 83.8911 216.787 82.0078C218.981 80.1245 216.456 77.1794 213.231 75.767C203.554 71.5096 181.295 67.8833 181.295 67.8833C181.295 67.8833 210.316 54.45 241.53 89.9216C250.436 100.039 256.556 94.9302 253.801 90.5526C245.447 76.9791 216.216 37.8312 154.989 37.8312C112.465 37.8312 78.1349 63.2453 60.5141 91.6145C57.8896 95.8318 60.3338 97.8854 65.3225 92.8266C80.3387 77.5902 107.296 57.6255 138.731 65.3088Z" fill="#008ECC"/>
<path fill-rule="evenodd" clip-rule="evenodd" d="M82.9937 169.208H55.4957L50.5371 183.924C50.3134 184.574 49.8917 185.138 49.3312 185.537C48.7707 185.936 48.0995 186.149 47.4116 186.148H31.1633C30.6486 186.151 30.1404 186.032 29.6802 185.802C29.22 185.572 28.8208 185.236 28.5151 184.822C28.2094 184.407 28.0059 183.927 27.9212 183.419C27.8365 182.912 27.873 182.391 28.0278 181.9L49.1947 116.637C49.4121 115.977 49.8324 115.403 50.3955 114.997C50.9585 114.59 51.6357 114.372 52.3302 114.373H86.2594C86.9526 114.371 87.6288 114.588 88.1917 114.993C88.7547 115.397 89.1757 115.969 89.3948 116.627L110.812 181.89C110.969 182.382 111.007 182.903 110.923 183.412C110.839 183.921 110.636 184.403 110.33 184.819C110.024 185.234 109.624 185.571 109.163 185.802C108.702 186.033 108.193 186.151 107.677 186.148H90.7371C90.0381 186.151 89.3561 185.931 88.7905 185.521C88.2248 185.11 87.8048 184.529 87.5917 183.864L82.9937 169.208ZM60.0837 153.832L77.9749 153.932L69.2297 125.793L60.0837 153.832Z" fill="#008ECC"/>
<path fill-rule="evenodd" clip-rule="evenodd" d="M198.615 182.561V117.808C198.62 116.936 198.971 116.101 199.591 115.487C200.21 114.873 201.048 114.53 201.921 114.533H218.9C219.332 114.531 219.759 114.615 220.158 114.779C220.558 114.943 220.921 115.184 221.227 115.488C221.533 115.792 221.776 116.154 221.942 116.552C222.108 116.95 222.195 117.377 222.196 117.808V167.495H239.226V117.808C239.231 116.936 239.582 116.101 240.202 115.487C240.821 114.873 241.659 114.53 242.532 114.533H259.561C260.434 114.53 261.271 114.873 261.891 115.487C262.511 116.101 262.862 116.936 262.867 117.808V167.495H268.817C269.249 167.492 269.677 167.574 270.076 167.737C270.476 167.9 270.84 168.14 271.147 168.443C271.454 168.746 271.698 169.107 271.865 169.504C272.033 169.902 272.121 170.329 272.123 170.76V195.934C272.121 196.365 272.033 196.792 271.865 197.19C271.698 197.587 271.454 197.948 271.147 198.251C270.84 198.555 270.476 198.795 270.076 198.957C269.677 199.12 269.249 199.202 268.817 199.2H261.364C260.566 199.204 259.793 198.918 259.19 198.395C258.587 197.871 258.196 197.146 258.089 196.355L256.486 185.826H201.921C201.489 185.829 201.061 185.747 200.662 185.584C200.262 185.421 199.898 185.182 199.591 184.878C199.284 184.575 199.04 184.214 198.873 183.817C198.705 183.419 198.617 182.992 198.615 182.561Z" fill="#008ECC"/>
<path fill-rule="evenodd" clip-rule="evenodd" d="M189.66 117.649V182.541C189.659 182.974 189.572 183.402 189.405 183.8C189.238 184.199 188.994 184.561 188.687 184.865C188.38 185.17 188.016 185.41 187.615 185.574C187.215 185.737 186.786 185.82 186.354 185.817H168.473C168.041 185.82 167.612 185.737 167.212 185.574C166.811 185.41 166.447 185.17 166.14 184.865C165.833 184.561 165.589 184.199 165.422 183.8C165.255 183.402 165.168 182.974 165.167 182.541V159.501H145.022V182.541C145.021 182.974 144.934 183.402 144.767 183.8C144.6 184.199 144.356 184.561 144.049 184.865C143.742 185.17 143.378 185.41 142.977 185.574C142.577 185.737 142.149 185.82 141.716 185.817H123.845C123.413 185.82 122.984 185.737 122.584 185.574C122.184 185.41 121.819 185.17 121.512 184.865C121.205 184.561 120.961 184.199 120.794 183.8C120.627 183.402 120.541 182.974 120.539 182.541V117.649C120.541 117.216 120.627 116.789 120.794 116.39C120.961 115.991 121.205 115.629 121.512 115.325C121.819 115.021 122.184 114.78 122.584 114.617C122.984 114.453 123.413 114.371 123.845 114.373H141.716C142.149 114.371 142.577 114.453 142.977 114.617C143.378 114.78 143.742 115.021 144.049 115.325C144.356 115.629 144.6 115.991 144.767 116.39C144.934 116.789 145.021 117.216 145.022 117.649V140.689H165.167V117.649C165.168 117.216 165.255 116.789 165.422 116.39C165.589 115.991 165.833 115.629 166.14 115.325C166.447 115.021 166.811 114.78 167.212 114.617C167.612 114.453 168.041 114.371 168.473 114.373H186.354C186.786 114.371 187.215 114.453 187.615 114.617C188.016 114.78 188.38 115.021 188.687 115.325C188.994 115.629 189.238 115.991 189.405 116.39C189.572 116.789 189.659 117.216 189.66 117.649Z" fill="#008ECC"/>
</svg>
