<svg xmlns="http://www.w3.org/2000/svg" id="Layer_1" width="322" height="248.4" viewBox="0 0 322 248.4"><style><![CDATA[.st0{fill:#F7BC60}.st1{fill:#FFFFFF}.st2{fill:none}]]></style><path d="M119.4 198.9L108.9 163 95 165.5 95 169.4 97.4 172.1 97.4 216.3 95 219.9 95 224.2 107.4 222 107.4 218 105 215.2 105 177.4 115.7 213.8 114.3 220.8 124.6 219 123.3 212.8 134 172.6 134 209.8 131.6 213.4 131.6 217.7 144 215.5 144 211.5 141.6 208.8 141.6 164.6 144 161.1 144 156.8 130 159.3z"/><path d="M152.7 159.2L155.2 162 155.2 206.1 152.7 209.8 152.7 214 165.2 211.8 165.2 207.9 162.8 205 162.8 160.9 165.2 157.3 165.2 153.1 152.7 155.3z"/><path d="M248.6,143.7c0-2.6-1.9-4.5-4.4-4.5c-0.3,0-0.6,0-0.9,0.1l-20.6,3.6c-2.8,0.5-5,3.1-5,5.9v48.4c0,2.6,1.9,4.5,4.4,4.5 c0.3,0,0.6,0,0.9-0.1l20.6-3.6c2.8-0.5,5-3.1,5-5.9V143.7z M241.1,190.1c0,0.4-0.4,0.7-0.7,0.8l-14.9,2.6c-0.1,0-0.2,0-0.2-0.3 v-42.5c0-0.3,0.3-0.7,0.7-0.8l14.8-2.6l0.1,0c0.1,0,0.3,0.1,0.3,0.3V190.1z"/><path d="M192,180.5l6.9,18l-2.3,3.5v4.2l12.4-2.2v-3.9l-2.6-3l-6.4-18l1.7-0.3c2.8-0.5,5-3.1,5-5.9V151c0-2.5-1.9-4.4-4.4-4.4 c-0.3,0-0.6,0-0.9,0.1l-27.4,4.8v3.9l2.4,2.8v44l-2.4,3.7v4.2l12.4-2.2v-3.9l-2.4-2.9v-19.3L192,180.5z M183.9,157.3l14.9-2.6 l0.1,0c0.1,0,0.2,0,0.2,0.3v15.8c0,0.4-0.3,0.7-0.7,0.8l-14.5,2.6V157.3z"/><path d="M306.1 183L303.7 180.1 303.7 159.2 309.3 158.2 315.8 158.5 315.8 148.1 309 150.8 303.7 151.7 303.7 136.3 314.8 134.3 318 136.2 321.9 135.5 321.9 125.4 293.7 130.4 293.7 134.4 296.1 137.2 296.1 181.2 293.7 184.9 293.7 189.1 306.1 186.9z"/><path d="M279.5 154.6L272.7 157.2 267.4 158.1 267.4 142.7 278.5 140.8 281.7 142.6 285.6 141.9 285.6 131.8 257.4 136.8 257.4 140.8 259.8 143.6 259.8 187.6 257.4 191.3 257.4 195.5 269.8 193.3 269.8 189.4 267.4 186.5 267.4 165.6 273 164.6 279.5 164.9z"/><path d="M33 168.9L36.2 172.7 36.2 201.9 18.5 166.6 1.6 169.5 1.6 174.5 5 178.3 5 238.3 1.6 243.2 1.6 248.4 17.8 245.6 17.8 240.6 14.5 236.8 14.5 180.6 36.2 222.3 36.2 232.7 33 237.7 33 242.9 49.2 240 49.2 235.1 45.9 231.3 45.9 171.3 49.2 166.3 49.2 161.2 33 164z"/><path d="M58 175.9L60.4 178.7 60.4 222.8 58 226.5 58 230.7 86.2 225.7 86.2 215.7 82.1 216.4 78.8 219.4 68 221.3 68 200.9 73.2 199.9 79.8 200.2 79.8 189.8 72.9 192.4 68 193.3 68 177.8 79.1 175.8 82.3 177.7 86.2 177 86.2 167 58 172z"/><path d="M132.3,27.4l0.9,0.6c0,0,0.4-2.1,1.3-4.6c0.9-2.5,2.2-4.3,2.2-4.3c-7.6-2.8-16.6,1.9-18.9,8.8c-1.2,3.5-0.6,6.9,1.1,9.2 c1.6,2.3,4.3,3.5,6.5,3.5c3.8-0.1,4.7-3,4.7-4.2c0-1.2-0.5-2.3-1-2.9l-0.1,0c-0.1,0.3-0.3,3-3.4,2.7c-1.3-0.1-2-1-2.4-1.9 c-0.6-1.3-0.4-2.9,0-4.1C123.8,28.2,127.5,24.7,132.3,27.4z"/><path d="M135,86.6v31.2c0,1.6-0.8,3.7-2.6,4.7l0.2,0.3c2.3-0.6,4.7-0.9,7-0.9c2.5,0,5,0.3,7.2,0.9l0.2-0.3c-1.9-1-2.6-2.8-2.6-4.3 V87.3C142.9,87.5,139,87.9,135,86.6z"/><path d="M111.9,23.8L112,24c0.3-0.3,0.6-0.6,0.9-0.9c5.8-5.8,12.5-10.4,19.9-13.6c7.7-3.3,15.9-5,24.4-5c8.5,0,16.7,1.7,24.4,5 c7.5,3.2,14.2,7.7,19.9,13.6c5.8,5.8,10.3,12.6,13.5,20.1c0.1,0.3,0.2,0.6,0.3,0.8c1.6-0.5,3.3-0.5,4.9-0.1 c-9.6-25.7-34.2-44-63-44c-18,0-34.4,7.1-46.5,18.7c-0.2,0.3-0.4,0.9-0.3,1.8C110.7,21.8,111.3,22.9,111.9,23.8z"/><path d="M96.1,39.3c-4,8.7-6.2,18.3-6.2,28.5c0,12.5,3.4,24.3,9.2,34.3c0.6-1.9,0.5-4.1,0.5-4.9c0,0,0-1.6,0-4.3 c-0.1-0.2-0.1-0.3-0.2-0.5c-3.3-7.8-4.9-16.1-4.9-24.6c0-8.4,1.6-16.6,4.8-24.2C98.6,41.4,97.4,40.3,96.1,39.3z"/><path d="M201.5,112.6c-5.8,5.8-12.5,10.4-19.9,13.6c-7.7,3.3-15.9,5-24.4,5c-8.5,0-16.7-1.7-24.4-5c-7.5-3.2-14.2-7.7-19.9-13.6 c-0.8-0.8-1.6-1.6-2.3-2.5c-1.2,1.3-2.5,2.2-3.7,2.7c12.3,14,30.3,22.8,50.4,22.8c20.6,0,39.1-9.4,51.4-24.1 c-1.6-0.1-3.8-0.5-5.4-0.8C202.7,111.4,202.1,112,201.5,112.6z"/><path d="M111.8,97.2c0.6-2.8,0.7-6.2,0.7-10.3c0-6.2,0-35.1,0-35.1l0,0l0,0c0,0,9.2,11.8,11.4,14.2c2.6,2.6,5.7,4.5,11.6,4.5 c6.1,0,8.5-4.9,8.5-8.1c0-10.3,0-24.9,0-29.1c0-4.3-0.9-22,13.4-22c7.1,0,9.8,3.6,9.7,7c-0.2,4.4-3.7,6.8-7.2,6.8 c-4.5,0-5.5-2.9-5.5-4.1c0-1.2,0.8-2.9,2.5-2.9l0,0c0.1,0.9,0.9,1.7,2.1,2c1.3,0.3,2.6-0.3,2.8-1.4c0.1-0.4,0-0.9-0.3-1.4 c-0.3-0.4-1.1-1.3-3-1.3c-4.9,0-5.9,3.4-5.9,4.8c0,4.4,3.9,6.3,7.8,6.2c5.1-0.2,9.4-4.3,9.3-9.1c-0.1-4.3-4.4-8.9-12.1-8.8 c-6.6,0.1-12.3,2.1-17.9,10.4c-2.1,3.2-3.3,7.2-4,11.8c-1,6.7-0.8,13.9-0.8,16.5c0,4.1,0,16.6,0,16.6l0,0l0,0l-26.5-33.8 c0,0-3.5-4.4-2.1-6.5c-0.1-0.1-0.2-0.3-0.2-0.3s-1.9,2.8-4.6,4.9s-5.9,3.8-5.9,3.8s0.1,0.2,0.2,0.3c2.4-0.5,7.5,5,7.5,10.4 c0,5.5,0,56.2,0,56.2c0,0.9,0.1,3.7-0.8,5.8c-0.6,1.3-1.9,2.7-3.8,3.3c-1.1,0.4-2.3,0.7-2,1.6c0.7,1,2.8,1,5,0.4 C104.6,109.6,109.8,107.1,111.8,97.2z"/><path d="M165.7,61.2c0.6,0.3,13.3,9.3,24.6,14.8c11.3,5.5,18.7,7.4,26.3,7.4c7.6,0,12.4-5.5,13.2-7c0.8-1.5,0.8-2.8-1.2-1.8 s-5.6,2.5-12.2,2.1c-7.8-0.4-18.2-3.8-24-6.8c-5.8-3-8.4-4.3-12.3-6.6c-4.6-2.8-8.4-5.7-10.5-7.2c-0.3-0.3-1.4-0.9-0.8-1.7 c0.6-0.8,1.3,0,2,0.3c1,0.6,13.1,8.3,24.7,12.9c12,4.8,18.9,4.7,23,3.5c5.3-1.5,8.7-6.1,9.5-9.5c1.1-4.7-0.6-10.1-4.5-12.7 c-3.3-2.1-9.4-3.2-12.4,1.6c-2.4,3.7,0.2,7.2,1,7.7c0.5,0.3,1.6,0.6,1.1-0.4c-2.3-4.9,1.2-6.9,1.9-7.1c1.7-0.6,5.3-0.7,6.4,3.6 c0.5,2,0.2,8.2-7.5,8.4c-5.9,0.2-10.6-1.7-13.7-3c-3.1-1.3-6.2-3.2-6.5-3.5c-0.3-0.4-0.2-0.7-0.2-0.9c0.4-1.1,5.9-0.1,6.7-5.2 c0.1-0.9,0.4-2.3-0.2-3.8c-0.7-1.6-2.6-2.1-2.9-1.6c-0.4,0.7,0.3,1.9-3.1,3.7c-3.4,1.8-13.3,1.7-21.6-2.3 c-8.3-4-10.8-10.3-17.7-15.7c-2.4-1.9-5.3-2.5-6.5-2.2v34.3c0,4.4-2.8,10.7-11.2,11.6c-6.3,0.7-11.5-2.2-13.1-4 c-1.6-1.8-2.5-2.3-3.2-1.7c-0.7,0.6-0.4,2.2,0.6,3.7c1,1.5,3.7,6.2,10.5,9.6c3.7,1.9,7.2,2.3,10,2.2c2.4,0,3.9-0.7,5.5,0.4 c0.8,0.7,0.9,1.5,0.9,3.3s0,6.7,0,7.8c0,2.2,0.5,2.6,1.1,2.6c0.6,0,0.7-0.9,2.4-0.3s6.6,2.7,12,7.4c5.4,4.7,11.2,8.7,10.8,13 c-0.2,2.9-3.2,5.4-6.6,3.6c-1.1-0.1-0.8,0.8-0.2,1.2c0.7,0.5,6.4,3.6,10.6-1.1c4.4-4.9,0.4-11.1-1.9-13.1c-2-1.8-12.2-9.8-14.9-12 c-6.2-5-11.5-11.9-11.8-12.2c-0.2-0.4-0.7-1-0.4-1.3s0.6-0.1,0.9,0.2c0.3,0.2,10.7,10.4,21,16.9c10.3,6.5,22.5,10.1,25.5,10.6 c0.9,0.2,1.8,0.4,2-0.4s-1.2-1.3-2.1-1.6s-12.5-4.7-23.9-12.3c-11.4-7.6-24.2-18.3-26.7-21.2c-0.4-0.4-0.7-1.1-0.2-1.4 c0.5-0.4,0.8-0.2,1.5,0.4c0.7,0.6,19.6,16.6,35.2,24.5c7.2,3.6,13.7,6.4,19.2,7.7c6.4,1.5,11.2,1.1,12.4,0.8 c2.8-0.7,3.5-1.8,3.9-2.3s0.1-0.8-0.5-0.8c-0.6,0-10.5,0.8-27.9-7.3c-8.1-3.8-16.8-8.9-23.2-13.6c-7.3-5.3-11.8-10.1-12.6-11 c-0.8-0.9-1-1.2-0.6-1.6c0.6-0.6,1.1-0.1,1.9,0.5c0.8,0.6,12.6,9.4,19.8,13.7c7.2,4.4,15.4,8.4,21.4,10.9 c6.3,2.6,12.8,4.2,17.5,4.2c3.8,0,6.2-0.5,7.8-1.2c2-0.9,2.6-1.6,3.1-2.3c0.4-0.7-0.3-1-1.2-0.9c-0.9,0.1-5.7,0.7-12-0.2 c-6.3-0.9-14.2-3.4-21.2-6.9c-14-7.1-26.5-16.2-30.8-20.6c-0.9-0.9-1.2-1.6-0.6-2.1s1.3,0,2.3,1c1.3,1.2,10.9,8.9,26,16.5 c15.1,7.6,22.5,9.1,28.6,9.1s10-0.8,12.5-3.3c1.9-2,1.1-2.2-1.2-1.7c-4.2,1.1-12.8,0.3-15.2,0c-4.2-0.6-12-2.5-22.9-8.6 C172,69.5,165.1,63,164.6,62.5c-0.6-0.5-1.2-1-0.7-1.6C164.4,60.3,165.1,60.9,165.7,61.2z"/><path d="M224.5,239.6v-15.1c0-0.4-0.3-0.8-0.8-0.8h-5.4c-0.4,0-0.8,0.3-0.8,0.8v1c0,0.4,0.3,0.8,0.8,0.8h1.8c0.4,0,0.8,0.3,0.8,0.8 v12.7c0,0.4,0.3,0.8,0.8,0.8h2.1C224.1,240.3,224.5,240,224.5,239.6z"/><path d="M245.9,231.4c0,0-3.1,2-3.1,4.1c0,3.6,3.2,5.6,8.7,5.6c5.6-0.1,8.7-2.2,8.7-5.7c0-2.4-3.2-4-3.2-4 c-0.4-0.2-0.4-0.6-0.1-0.8c0,0,1.5-1.2,1.5-2.6c0-3.1-2.4-5-7.3-5c-4.5,0-6.8,1.9-6.8,5.1c0,1.3,1.6,2.6,1.6,2.6 C246.2,230.8,246.2,231.2,245.9,231.4z M251.3,225.7c2.3,0,3.4,0.8,3.4,2.2c0,1.2-1.2,1.9-3.5,1.9c-2.2,0-3.3-0.8-3.3-2.1 C247.9,226.4,249.1,225.7,251.3,225.7z M251.4,232.5c3,0,4.8,0.9,4.8,2.7c0,1.8-1.8,2.9-4.8,2.9c-3.1,0-4.9-1.1-4.9-2.8 C246.5,233.4,248.3,232.5,251.4,232.5z"/><path d="M291.8,223.7h-12.3c-0.4,0-0.8,0.3-0.8,0.8v1.5c0,0.4,0.3,0.8,0.8,0.8h8.2c0.4,0,0.6,0.3,0.3,0.6l-8.5,12.3 c-0.2,0.3-0.1,0.6,0.3,0.6h2.4c0.4,0,1-0.3,1.2-0.6l8.6-12.4c0.2-0.3,0.4-1,0.4-1.4v-1.4C292.6,224.1,292.3,223.7,291.8,223.7z"/><path d="M315,231c-0.4,0.1-1,0.3-1.4,0.5c0,0-7.4,3.1-7.4,7.7c0,0.4,0,0.6,0,0.6c0,0.4,0.4,0.8,0.8,0.8h14.2c0.4,0,0.8-0.3,0.8-0.8 v-1.3c0-0.4-0.3-0.8-0.8-0.8h-10.4c-0.4,0-0.6-0.3-0.4-0.7l3.7-2.7c0.4-0.2,1-0.4,1.4-0.5c0,0,6.2-2.2,6.2-5.1c0-3.6-3-5.2-7.5-5.2 c-3.4,0-6.6,3.2-6.6,3.2c-0.3,0.3-0.2,0.7,0.2,0.8l1.7,0.8c0.4,0.2,0.9,0.1,1.2-0.2c0,0,1.9-1.9,3.8-1.9c2.2,0,3.7,0.9,3.7,2.6 C318.2,230.1,315,231,315,231z"/><g><path d="M6.7,139.3l-2.2-0.6c-0.7-0.2-1.3-0.4-1.7-0.7c-0.4-0.3-0.6-0.6-0.6-1c0-0.4,0.2-0.8,0.7-1.1c0.5-0.3,1.1-0.4,1.8-0.4 c0.9,0,1.6,0.2,2.3,0.7c0.6,0.4,1.2,1.1,1.7,1.9c0.1,0.2,0.3,0.3,0.5,0.3h0c0.3,0,0.2-3.8-0.1-3.8c-0.2,0-0.4,0.1-0.5,0.3 c0,0.1-0.1,0.1-0.2,0.2c-0.1,0.1-0.3,0.2-0.4,0.2c-0.1,0-0.1,0-0.2,0c-0.1,0-0.1,0-0.2,0c0,0-0.1,0-0.3-0.1 C7.2,135,7,135,6.8,134.9c-0.4-0.1-0.8-0.2-1.2-0.3c-0.3-0.1-0.7-0.1-1-0.1c-1.4,0-2.5,0.3-3.4,1S0,137.1,0,138.2 c0,0.9,0.3,1.6,1,2.2c0.6,0.6,1.5,1.1,2.7,1.4l2.2,0.6c1,0.3,1.7,0.5,2.1,0.8c0.4,0.3,0.6,0.7,0.6,1.2c0,0.5-0.2,0.9-0.7,1.3 c-0.5,0.3-1.1,0.5-1.9,0.5c-1.1,0-2-0.3-2.9-1c-0.8-0.6-1.4-1.4-2-2.5c-0.1-0.2-0.4-0.4-0.7-0.4c-0.4,0-0.2,4.8,0.1,4.8 c0.3,0,0.5-0.2,0.6-0.4c0-0.1,0.1-0.2,0.1-0.2c0.1-0.2,0.3-0.2,0.5-0.2c0.2,0,0.5,0.1,0.9,0.2c0.4,0.1,0.7,0.2,0.9,0.3 c0.5,0.1,1,0.3,1.4,0.3c0.4,0.1,0.7,0.1,1.1,0.1c1.4,0,2.6-0.4,3.5-1.1c0.9-0.7,1.4-1.6,1.4-2.8c0-1-0.3-1.8-1-2.5 S8.1,139.6,6.7,139.3z"/><path d="M22.5,136c0.2-0.1,1.4-0.5,1.4-0.7c0-0.2-2.4-0.4-2.7-0.4h-1.8c-0.2,0-2.7,0.2-2.7,0.4v0c0,0.2,1.2,0.6,1.4,0.7 c0.2,0.2,0.3,0.5,0.3,1v7.5c0,0.5-0.1,0.9-0.3,1c-0.2,0.1-1.4,0.5-1.4,0.7v0c0,0.2,2.4,0.4,2.7,0.4h1.8c0.2,0,2.7-0.2,2.7-0.4l0,0 c0-0.2-1.2-0.6-1.4-0.7c-0.2-0.2-0.3-0.5-0.3-1.1v-7.5C22.1,136.5,22.2,136.2,22.5,136z"/><path d="M43,134.9h-0.7c-0.2,0-2.2,0.2-2.2,0.4v0c0,0.2,1.4,0.6,1.6,0.7c0.2,0.2,0.4,0.5,0.4,1.1v5.9l-7.3-7.6 c-0.3-0.3-0.7-0.5-1.2-0.5h-1.5c-0.2,0-2.7,0.2-2.7,0.4c0,0.2,1.4,0.6,1.6,0.7c0.2,0.2,0.3,0.5,0.3,1.1v7.5c0,0.6-0.1,0.9-0.3,1.1 c-0.2,0.1-1.6,0.5-1.6,0.7v0c0,0.2,2,0.4,2.2,0.4h0.7c0.2,0,2.2-0.2,2.2-0.4c0-0.2-1.4-0.6-1.6-0.7c-0.2-0.2-0.3-0.5-0.3-1.1v-7 l8.4,9c0.2,0.2,0.8,0.5,1.1,0.5c0.5,0,1.2-0.4,1.1-1.1v-8.8c0-0.6,0.1-0.9,0.3-1.1c0.2-0.1,1.6-0.5,1.6-0.7v0 C45.2,135,43.2,134.9,43,134.9z"/><path d="M62.3,143.1c-0.3-0.1-0.6,0.1-0.7,0.3c-0.4,0.8-0.9,1.4-1.5,1.9c-0.7,0.5-1.5,0.8-2.4,0.8c-0.5,0-1-0.1-1.5-0.3 c-0.5-0.2-0.8-0.4-1.2-0.7c-0.5-0.4-0.8-0.9-1-1.6c-0.2-0.6-0.3-1.5-0.3-2.6c0-1.7,0.3-3.1,0.9-3.9s1.5-1.3,2.7-1.3 c1,0,1.8,0.3,2.5,0.9c0.6,0.5,1.1,1.3,1.5,2.3c0.1,0.2,0.3,0.4,0.6,0.4c0.3,0,0.1-4.6-0.2-4.6c-0.3,0-0.5,0.1-0.6,0.4 c0,0.1-0.1,0.1-0.1,0.2c-0.1,0.1-0.3,0.2-0.5,0.2c-0.2,0-0.5-0.1-0.9-0.2c-0.3-0.1-0.5-0.1-0.6-0.2c-0.5-0.1-1-0.3-1.4-0.3 c-0.4-0.1-0.7-0.1-1-0.1c-0.9,0-1.7,0.1-2.5,0.4c-0.8,0.3-1.5,0.7-2.2,1.2c-0.7,0.6-1.3,1.3-1.7,2.1c-0.4,0.8-0.6,1.7-0.6,2.6 c0,1.3,0.3,2.4,1,3.4c0.7,1,1.6,1.7,2.8,2.3c0.5,0.2,1,0.4,1.6,0.5s1.2,0.2,1.9,0.2c1.5,0,2.8-0.3,3.8-1c0.8-0.5,1.4-1.2,1.9-2.1 C62.9,143.6,62.7,143.2,62.3,143.1z"/><path d="M81.3,142.4c-0.3,0-1.3,2.2-2,2.7c-0.8,0.6-2.1,0.8-3.8,0.8c-1,0-1.7-0.1-2-0.2c-0.3-0.2-0.5-0.5-0.5-1.1v-3.5h0.9 c0.9,0,1.5,0.2,1.9,0.6c0.4,0.3,1,1.8,1.3,1.8c0.3,0,0.5-2.5,0.5-2.8v0c0-0.3-0.2-2.8-0.5-2.8c-0.3,0-0.9,1.5-1.3,1.8 c-0.4,0.4-1.1,0.6-1.9,0.6h-0.9v-3.1c0-0.6,0.1-1,0.4-1.1c0.3-0.2,0.9-0.2,1.9-0.2c1.6,0,2.8,0.2,3.6,0.7c0.7,0.4,1.8,2.4,2.1,2.4 c0.4,0,0.6-0.3,0.6-0.7l-0.2-2.9c0-0.2-0.2-0.4-0.4-0.4H70.2c-0.2,0-2.7,0.2-2.7,0.4c0,0.2,1.2,0.6,1.4,0.7c0.2,0.2,0.3,0.5,0.3,1 v7.5c0,0.5-0.1,0.9-0.3,1c-0.2,0.1-1.4,0.5-1.4,0.7c0,0.2,2.4,0.4,2.7,0.4h11c0.2,0,0.4-0.2,0.4-0.4l0.3-3.3 C81.9,142.7,81.6,142.4,81.3,142.4z"/></g></svg>