<svg width="42" height="41" viewBox="0 0 42 41" fill="none" xmlns="http://www.w3.org/2000/svg">
<path fill-rule="evenodd" clip-rule="evenodd" d="M1.97111 39.5565C1.39167 38.9771 1.39167 38.0376 1.97111 37.4581L37.9711 1.45815C38.5506 0.878699 39.49 0.8787 40.0695 1.45814C40.6489 2.03759 40.6489 2.97706 40.0695 3.5565L4.06947 39.5565C3.49003 40.1359 2.55056 40.1359 1.97111 39.5565Z" fill="#F9F9F9"/>
<path fill-rule="evenodd" clip-rule="evenodd" d="M1.97112 1.45787C2.55056 0.878425 3.49003 0.878425 4.06947 1.45787L40.0695 37.4579C40.6489 38.0373 40.6489 38.9768 40.0695 39.5562C39.49 40.1357 38.5506 40.1357 37.9711 39.5562L1.97112 3.55623C1.39167 2.97678 1.39167 2.03731 1.97112 1.45787Z" fill="#F9F9F9"/>
</svg>
