<svg width="195" height="47" viewBox="0 0 195 47" fill="none" xmlns="http://www.w3.org/2000/svg">
<path d="M195 2.52698V44.4363H186.282V2.52698H195Z" fill="#F5F5F5"/>
<path d="M161.827 45.0273C159.822 45.0273 158.034 44.6794 156.466 43.9837C154.897 43.2743 153.655 42.2306 152.741 40.8527C151.841 39.4612 151.391 37.7286 151.391 35.655C151.391 33.9088 151.711 32.4422 152.352 31.2553C152.994 30.0685 153.867 29.1135 154.972 28.3905C156.077 27.6674 157.332 27.1217 158.737 26.7534C160.156 26.385 161.643 26.1258 163.198 25.9758C165.026 25.7848 166.5 25.6074 167.618 25.4437C168.737 25.2664 169.549 25.0072 170.053 24.6661C170.558 24.325 170.81 23.8203 170.81 23.1518V23.029C170.81 21.733 170.401 20.7303 169.583 20.0209C168.778 19.3115 167.632 18.9568 166.145 18.9568C164.576 18.9568 163.328 19.3047 162.4 20.0004C161.472 20.6825 160.858 21.542 160.558 22.5788L152.496 21.924C152.905 20.0141 153.71 18.3633 154.91 16.9718C156.111 15.5666 157.659 14.4889 159.556 13.7386C161.465 12.9746 163.676 12.5926 166.186 12.5926C167.932 12.5926 169.603 12.7973 171.199 13.2065C172.809 13.6158 174.235 14.2502 175.476 15.1096C176.731 15.9691 177.72 17.0741 178.443 18.4247C179.166 19.7617 179.528 21.3646 179.528 23.2336V44.4338H171.261V40.0751H171.015C170.51 41.0574 169.835 41.9237 168.989 42.674C168.143 43.4107 167.127 43.9905 165.94 44.4134C164.753 44.8227 163.382 45.0273 161.827 45.0273ZM164.324 39.011C165.606 39.011 166.738 38.7586 167.72 38.2539C168.703 37.7355 169.474 37.0397 170.033 36.1666C170.592 35.2935 170.872 34.3044 170.872 33.1994V29.8638C170.599 30.0412 170.224 30.2049 169.746 30.3549C169.283 30.4914 168.757 30.621 168.171 30.7438C167.584 30.8529 166.997 30.9552 166.411 31.0507C165.824 31.1326 165.292 31.2076 164.815 31.2758C163.792 31.4259 162.898 31.6646 162.134 31.992C161.37 32.3195 160.777 32.7628 160.354 33.3222C159.931 33.8679 159.719 34.55 159.719 35.3685C159.719 36.5554 160.149 37.4626 161.008 38.0902C161.882 38.7041 162.987 39.011 164.324 39.011Z" fill="#F5F5F5"/>
<path d="M91.5186 44.4363H76.6621V8.55385V2.52698H84.2602H91.6414C95.8569 2.52698 99.4858 3.36598 102.528 5.04399C105.57 6.70836 107.91 9.10259 109.547 12.2267C111.198 15.3508 112.023 19.0888 112.023 23.4407C112.023 27.8062 111.198 31.5579 109.547 34.6956C107.91 37.8334 105.557 40.2412 102.487 41.9192C99.4312 43.5973 95.775 44.4363 91.5186 44.4363ZM85.5228 36.8443H91.1503C93.7696 36.8443 95.9728 36.3805 97.76 35.4528C99.5608 34.5115 100.911 33.0585 101.812 31.094C102.726 29.1159 103.183 26.5648 103.183 23.4407C103.183 20.3439 102.726 17.8132 101.812 15.8487C100.911 13.8842 99.5676 12.4381 97.7805 11.5105C95.9933 10.5828 93.7901 10.1189 91.1707 10.1189H85.5228V36.8443Z" fill="#F5F5F5"/>
<path d="M55.3513 45.0478C52.1726 45.0478 49.4237 44.3725 47.1045 43.0219C44.7989 41.6576 43.0186 39.7613 41.7635 37.333C40.5084 34.891 39.8809 32.0602 39.8809 28.8407C39.8809 25.5938 40.5084 22.7562 41.7635 20.3278C43.0186 17.8858 44.7989 15.9896 47.1045 14.639C49.4237 13.2747 52.1726 12.5926 55.3513 12.5926C58.5299 12.5926 61.2721 13.2747 63.5776 14.639C65.8968 15.9896 67.684 17.8858 68.9391 20.3278C70.1941 22.7562 70.8217 25.5938 70.8217 28.8407C70.8217 32.0602 70.1941 34.891 68.9391 37.333C67.684 39.7613 65.8968 41.6576 63.5776 43.0219C61.2721 44.3725 58.5299 45.0478 55.3513 45.0478ZM55.3922 38.2948C56.8383 38.2948 58.0456 37.8855 59.0142 37.067C59.9828 36.2348 60.7127 35.1025 61.2038 33.67C61.7086 32.2376 61.961 30.6073 61.961 28.7793C61.961 26.9512 61.7086 25.3209 61.2038 23.8885C60.7127 22.456 59.9828 21.3237 59.0142 20.4915C58.0456 19.6594 56.8383 19.2433 55.3922 19.2433C53.9325 19.2433 52.7047 19.6594 51.7088 20.4915C50.7265 21.3237 49.983 22.456 49.4782 23.8885C48.9871 25.3209 48.7416 26.9512 48.7416 28.7793C48.7416 30.6073 48.9871 32.2376 49.4782 33.67C49.983 35.1025 50.7265 36.2348 51.7088 37.067C52.7047 37.8855 53.9325 38.2948 55.3922 38.2948Z" fill="#F5F5F5"/>
<path d="M34.61 0.877991V8.08115V42.7873H25.8516V8.08115H8.9078V42.7873H0.149414V0.877991H34.61Z" fill="#F5F5F5"/>
<path d="M149.578 31.9813C149.578 32.2308 149.495 32.4802 149.329 32.7296C149.245 32.9791 148.954 33.2701 148.455 33.6026C147.208 34.4341 145.836 35.3071 144.34 36.2217C143.093 36.97 141.679 37.8014 140.1 38.716C138.603 39.6306 137.023 40.5451 135.36 41.4597C134.363 41.9586 133.157 42.499 131.744 43.081C130.413 43.663 129 44.1619 127.503 44.5776C126.09 45.0765 124.635 45.4506 123.138 45.7001C121.725 46.0326 120.395 46.1989 119.147 46.1989C117.484 46.1989 116.154 45.8663 115.156 45.2012C114.076 44.6192 113.535 43.5799 113.535 42.0833C113.535 40.9193 114.325 39.4227 115.905 37.5935C117.401 35.7644 120.228 33.5611 124.385 30.9836C121.725 30.9836 119.813 30.6926 118.648 30.1106C117.484 29.4455 116.902 28.6556 116.902 27.741C116.902 26.4939 117.734 25.0388 119.397 23.376C121.06 21.7131 123.138 20.1334 125.633 18.6368C128.127 17.1402 130.829 15.893 133.739 14.8953C136.649 13.8144 139.31 13.274 141.721 13.274C142.552 13.274 143.342 13.3987 144.09 13.6482C144.922 13.8976 145.338 14.5212 145.338 15.5189C145.338 16.2672 144.963 17.0155 144.215 17.7638C143.467 18.4289 142.594 19.0525 141.596 19.6345C140.682 20.1334 139.809 20.5907 138.977 21.0064C138.229 21.339 137.855 21.5052 137.855 21.5052C137.688 21.5052 137.481 21.4637 137.231 21.3805C137.065 21.2142 136.899 20.9232 136.732 20.5075C136.732 20.1749 136.899 19.9255 137.231 19.7592C137.397 19.6761 137.522 19.5929 137.605 19.5098C138.021 19.2604 138.395 18.9694 138.728 18.6368C139.393 17.9716 139.725 17.4728 139.725 17.1402C139.725 16.6413 139.434 16.3088 138.852 16.1425C138.27 15.9762 137.813 15.893 137.481 15.893C136.4 15.893 134.986 16.2672 133.24 17.0155C131.577 17.7638 129.914 18.6784 128.252 19.7592C126.589 20.8401 125.134 21.9625 123.887 23.1265C122.723 24.2906 122.141 25.3298 122.141 26.2444C122.141 27.4916 123.596 28.1152 126.506 28.1152C127.004 28.1152 127.545 28.1152 128.127 28.1152C128.709 28.032 129.332 27.9489 129.998 27.8657C130.247 27.8657 130.496 27.9073 130.746 27.9904C131.078 28.0736 131.245 28.2399 131.245 28.4893C131.245 28.9882 130.58 29.6117 129.249 30.36C128.002 31.1083 126.589 31.9813 125.009 32.9791C123.512 33.9768 122.099 35.0577 120.769 36.2217C119.522 37.3025 118.898 38.425 118.898 39.589C118.898 40.753 119.23 41.5844 119.896 42.0833C120.644 42.499 121.6 42.7069 122.764 42.7069C124.593 42.7069 126.63 42.3327 128.875 41.5844C131.12 40.8361 132.908 40.171 134.238 39.589C135.901 38.9238 137.605 38.134 139.351 37.2194C141.18 36.3048 142.843 35.3902 144.34 34.4757C146.086 33.4779 147.79 32.4386 149.453 31.3578C149.536 31.3578 149.578 31.3993 149.578 31.4825V31.9813Z" fill="#F5F5F5"/>
</svg>
